<?xml version="1.0" encoding="utf-8"?>
<!-- Generator: Adobe Illustrator 25.0.1, SVG Export Plug-In . SVG Version: 6.00 Build 0)  -->
<svg version="1.1" xmlns="http://www.w3.org/2000/svg" xmlns:xlink="http://www.w3.org/1999/xlink" x="0px" y="0px"
	 viewBox="0 0 94.13 94.13" style="enable-background:new 0 0 94.13 94.13;" xml:space="preserve">
<style type="text/css">
	.st0{fill:none;}
	.st1{display:none;}
	.st2{fill:none;stroke:#000000;stroke-miterlimit:10;}
	.st3{fill:none;stroke:#FFFFFF;stroke-width:3;stroke-miterlimit:10;}
</style>
<g id="Lag_1">
	<path class="st0" d="M-126.94-25.24"/>
</g>
<g id="Lag_3">
</g>
<g id="Lag_5">
</g>
<g id="Lag_6" class="st1">
</g>
<g id="Lag_7">
	<path class="st2" d="M-207.61-111.27"/>
	<path class="st2" d="M-74.8-133.94"/>
	<path class="st3" d="M76.78,71.83v-48c0-0.01,0-0.01,0-0.01c0.04-0.14,1.62-6.43-6.43-7.28c0,0-0.01,0-0.01,0H27.48
		c0,0-11.57-0.86-9,11.14c0,0,0,0.01,0,0.01l-0.37,41.57c0,0,0,0,0,0.01c-0.01,0.08-0.88,6,3.8,6.43h31.27
		c0.71,0,1.27-0.62,1.2-1.32c-0.6-5.76-2-28.22,12.97-26.05c0.52,0.08,0.94-0.32,0.92-0.85l-0.06-1.53
		c-0.02-0.47-0.26-0.69-0.54-0.68l-17.84,0.81c-0.64,0.03-1.27,0.19-1.82,0.52c-0.72,0.43-1.59,1.15-1.83,2.21
		c-0.41,1.78,1.23,3.38,3.06,3.23c1.7-0.14,3.95-0.97,5.05-4.16c0-0.01,0-0.02,0-0.03l-0.17-11.96c-0.05-3.49,2.08-6.68,5.36-7.87
		c4.02-1.46,9.03-2.2,10.47,2.32"/>
</g>
<g id="Lag_4">
</g>
</svg>
