<?xml version="1.0" encoding="utf-8"?>
<!-- Generator: Adobe Illustrator 25.0.1, SVG Export Plug-In . SVG Version: 6.00 Build 0)  -->
<svg version="1.1" xmlns="http://www.w3.org/2000/svg" xmlns:xlink="http://www.w3.org/1999/xlink" x="0px" y="0px"
	 viewBox="0 0 94.13 94.13" style="enable-background:new 0 0 94.13 94.13;" xml:space="preserve">
<style type="text/css">
	.st0{fill:none;}
	.st1{display:none;}
	.st2{fill:none;stroke:#000000;stroke-miterlimit:10;}
	.st3{fill:none;stroke:#FFFFFF;stroke-width:3;stroke-miterlimit:10;}
</style>
<g id="Lag_1">
	<path class="st0" d="M-126.94-25.24"/>
</g>
<g id="Lag_3">
</g>
<g id="Lag_5">
</g>
<g id="Lag_6" class="st1">
</g>
<g id="Lag_7">
	<path class="st2" d="M-207.61-111.27"/>
	<path class="st2" d="M-74.8-133.94"/>
	<g id="Lag_7_1_">
		<path class="st3" d="M-138.56-70.39"/>
		<path class="st3" d="M-41.55-86.94"/>
		<path class="st3" d="M76.93,31.82v25.59c0,2.1-0.31,4.19-0.98,6.18c-0.97,2.89-2.86,6.77-6.42,9.62
			c-2.03,1.63-4.58,2.48-7.19,2.48H31.35c0,0-7.93-0.35-12.24-7.11c-1.46-2.29-2.15-4.99-2.15-7.71V31.74
			c0-1.59,0.26-3.17,0.81-4.66c1.03-2.75,3.26-6.87,7.84-9.42c2.4-1.34,5.14-1.95,7.89-1.95h25.82c2.47,0,4.94,0.34,7.29,1.07
			c3.35,1.06,7.19,3.08,7.69,6.87c0.1,0.79,0.01,1.59-0.2,2.35c-0.51,1.88-2.05,5.45-6.54,7.14c-2.02,0.76-4.32,0.5-5.97-0.88
			c-0.93-0.79-1.69-1.91-1.67-3.45c0.03-1.85,1.26-3.44,2.94-4.2c1.53-0.69,3.61-0.9,5.48,1.37c0,0,1.74,1.82,0.75,4.51"/>
		<path class="st3" d="M53.85,33.86c-4.1-2.15-9.02-1.79-13.02,0.53c-3.81,2.22-7.84,6.23-6.62,13.04c0,0,0.97,9.84,9.96,11.77
			c1.71,0.37,3.48,0.28,5.16-0.2c3.61-1.03,10.15-3.93,11.09-11.56C60.42,47.43,61.78,38.02,53.85,33.86z"/>
	</g>
</g>
<g id="Lag_4">
</g>
</svg>
